<?xml version="1.0" encoding="UTF-8"?>
<svg width="30px" height="22px" viewBox="0 0 30 22" version="1.1" xmlns="http://www.w3.org/2000/svg" xmlns:xlink="http://www.w3.org/1999/xlink">
    <title>登录-切换1.1</title>
    <g id="页面-1" stroke="none" stroke-width="1" fill="none" fill-rule="evenodd">
        <g id="登录-切换1.1" transform="translate(-1492.000000, -144.000000)" fill="#FFFFFF" fill-rule="nonzero">
            <g id="编组-10" transform="translate(1492.000000, 144.000000)">
                <path d="M14.333,20 L3,20 C1.34314575,20 2.02906125e-16,18.6568542 0,17 L0,3 C-2.02906125e-16,1.34314575 1.34314575,3.04359188e-16 3,0 L13,0 L13.5,2 L27,2 C28.6568542,2 30,3.34314575 30,5 L30,19 C30,20.6568542 28.6568542,22 27,22 L15,22 L14.333,20 Z M27,3 L13.75,3 L18,20 L16.5,21 L27,21 C28.0543618,21 28.9181651,20.1841222 28.9945143,19.1492623 L29,19 L29,5 C29,3.9456382 28.1841222,3.08183488 27.1492623,3.00548574 L27,3 Z M22.466,8.146 L25.469,16 L24.094,16 L23.379,14.031 L20.09,14.031 L19.375,16 L18,16 L21.003,8.146 L22.466,8.146 Z M8.04,5.74 L6.96,5.74 L6.96,7.45 L3.42,7.45 L3.42,12.33 L4.47,12.33 L4.47,11.78 L6.96,11.78 L6.96,15.12 L8.04,15.12 L8.04,11.78 L10.54,11.78 L10.54,12.33 L11.59,12.33 L11.59,7.45 L8.04,7.45 L8.04,5.74 Z M21.762,9.532 L21.718,9.532 L20.475,12.975 L22.994,12.975 L21.762,9.532 Z M6.96,8.47 L6.96,10.76 L4.47,10.76 L4.47,8.47 L6.96,8.47 Z M10.54,8.47 L10.54,10.76 L8.04,10.76 L8.04,8.47 L10.54,8.47 Z" id="形状结合"></path>
            </g>
        </g>
    </g>
</svg>