<?xml version="1.0" encoding="UTF-8"?>
<svg width="254px" height="34px" viewBox="0 0 254 34" version="1.1" xmlns="http://www.w3.org/2000/svg" xmlns:xlink="http://www.w3.org/1999/xlink">
    <title>登录-1920</title>
    <defs>
        <linearGradient x1="35.42%" y1="0%" x2="64.58%" y2="96.4290856%" id="linearGradient-1">
            <stop stop-color="#2CFFBE" offset="0%"></stop>
            <stop stop-color="#50F8D0" offset="100%"></stop>
        </linearGradient>
        <linearGradient x1="24.4897959%" y1="0%" x2="79.108216%" y2="104.66809%" id="linearGradient-2">
            <stop stop-color="#15CEFF" offset="0%"></stop>
            <stop stop-color="#0060FF" offset="100%"></stop>
        </linearGradient>
        <linearGradient x1="43.1020408%" y1="-2.21819196%" x2="55.899434%" y2="100%" id="linearGradient-3">
            <stop stop-color="#02E1FE" offset="0%"></stop>
            <stop stop-color="#12A9FF" offset="100%"></stop>
        </linearGradient>
    </defs>
    <g id="商户端" stroke="none" stroke-width="1" fill="none" fill-rule="evenodd">
        <g id="登录-1920" transform="translate(-360.000000, -134.000000)">
            <g id="编组-5" transform="translate(360.000000, 134.000000)">
                <g id="编组">
                    <g id="编组-2" transform="translate(0.000000, 1.789442)">
                        <g id="编组-3" transform="translate(16.377945, 0.000000)" fill="#1BE6B1">
                            <circle id="椭圆形" cx="1.63779453" cy="9.82676718" r="1.63779453"></circle>
                            <circle id="椭圆形备份" cx="6.27821237" cy="6.27821237" r="2.4566918"></circle>
                            <circle id="椭圆形备份-3" cx="3.27558906" cy="1.09186302" r="1.09186302"></circle>
                        </g>
                        <g id="编组-6备份-3" transform="translate(0.000000, 4.913384)" fill-rule="nonzero">
                            <path d="M0,0 L4.36745208,0 C10.0961354,0 14.7401508,4.64401539 14.7401508,10.3726987 L14.7401508,27.2965755 L10.3726987,27.2965755 C4.64401539,27.2965755 0,22.6525601 0,16.9238768 L0,0 Z" id="路径" fill="url(#linearGradient-1)"></path>
                            <path d="M7.64304114,8.18897265 L14.1942193,8.18897265 C18.1138447,8.18897265 21.2913289,11.3664569 21.2913289,15.2860823 L21.2913289,27.2965755 L14.7401508,27.2965755 C10.8205254,27.2965755 7.64304114,24.1190913 7.64304114,20.1994659 L7.64304114,8.18897265 Z" id="路径" fill="url(#linearGradient-2)"></path>
                            <path d="M14.1942193,8.18897265 C14.3005382,8.18897265 14.4063111,8.1913105 14.5114894,8.19593758 C14.6612518,8.89773517 14.7401508,9.62600301 14.7401508,10.3726987 L14.7401508,27.2965755 C10.8205254,27.2965755 7.64304114,24.1190913 7.64304114,20.1994659 L7.64304114,8.18897265 L14.1942193,8.18897265 Z" id="形状结合" fill="url(#linearGradient-3)"></path>
                        </g>
                    </g>
                    <g id="编组-8" transform="translate(35.683582, 13.736600)" fill="#FFFFFF" fill-rule="nonzero">
                        <path d="M15.0234812,2.69121882 L15.0001368,0.516675509 L1.11320178,0.516675509 L1.13654622,2.69121882 L15.0234812,2.69121882 Z M15.9906639,19.5923723 L13.902331,12.035296 L11.5340166,12.035296 L13.286357,17.5039495 L3.46861692,17.5039495 L5.90107042,9.04260769 L16.3647145,9.04260769 L16.34137,6.86806438 L0,6.86806438 L0.0233444437,9.04260769 L3.4466354,9.04260769 L0.768860763,19.5923723 L15.9906639,19.5923723 Z" id="云数轻碳"></path>
                        <path d="M31.9647994,0 L31.1183665,2.2819835 L35.5316365,2.2819835 L35.5687796,4.39174182 L34.7722382,4.39174182 L34.7992687,5.87718391 L34.7946585,6.73830976 L32.9492515,11.6467271 L35.7785394,19.9996478 L34.0562877,19.9996478 L31.8735459,14.5314987 L29.8152429,19.9996478 L27.9853505,19.9996478 L30.771411,11.7974241 L28.7667775,6.73830976 L27.8410672,6.73830976 L29.553647,0 L31.9647994,0 Z M22.7885378,10.0321161 L22.6512608,11.043939 L25.1054694,11.043939 L25.0920494,10.0321161 L27.1372233,10.0321161 L27.1506433,11.043939 L28.0332973,11.043939 L28.065289,13.110641 L27.182635,13.110641 L27.2063581,14.2085765 L27.1921764,15.3495682 L25.1696131,17.1579325 L27.8992379,19.9996478 L25.6172544,19.9996478 L23.8094613,18.3850368 L22.022054,19.9996478 L19.4817327,19.9996478 L22.3658026,17.1148762 L20.1482431,15.1342868 L20.4012689,13.110641 L19.3463898,13.110641 L19.3359263,11.043939 L20.6491432,11.043939 L20.764892,10.0321161 L22.7885378,10.0321161 Z M25.1374611,13.110641 L22.4033865,13.110641 L22.2661095,14.1224639 L23.7914609,15.7155467 L25.1361582,14.3592735 L25.1611842,14.2085765 L25.1374611,13.110641 Z M24.688286,0 L24.7644164,3.87506631 L27.9721102,3.87506631 L27.9877252,5.98482464 L27.1050712,5.98482464 L28.3128124,9.6015532 L26.9134829,9.6015532 L25.2967069,5.98482464 L24.7800314,5.98482464 L24.8467809,9.6015532 L22.8231351,9.6015532 L22.7563857,5.98482464 L22.1966539,5.98482464 L20.7349049,9.6015532 L19.3355754,9.6015532 L20.4313459,5.98482464 L19.3979949,5.98482464 L19.3608517,3.87506631 L22.7407707,3.87506631 L22.6646403,0 L24.688286,0 Z M32.7701206,4.39174182 L30.315912,4.39174182 L29.6444704,6.15704981 L31.0868562,6.15704981 L31.8868655,8.52514589 L32.7971511,5.87718391 L32.7701206,4.39174182 Z M21.1506744,0.301394047 L21.9607963,3.29380637 L20.5829949,3.29380637 L19.2777257,0.301394047 L21.1506744,0.301394047 Z M27.9105123,0.301394047 L26.6754603,3.29380637 L25.3191871,3.29380637 L25.9945073,0.301394047 L27.9105123,0.301394047 Z" id="形状结合"></path>
                        <path d="M42.4825848,0.0215281462 L42.1375632,1.63613911 L45.1730318,1.63613911 L45.2239758,3.681313 L41.8010006,3.681313 L40.9192087,8.54667404 L41.9310316,8.54667404 L41.896845,5.38203655 L43.6190967,5.38203655 L43.6748114,8.54667404 L44.9234439,8.54667404 L44.9769637,10.6133761 L43.6852749,10.6133761 L43.7472536,13.110641 L45.3258039,12.809247 L45.3793237,14.875949 L43.7602929,15.1988712 L43.8128606,19.9565915 L41.9183838,19.9565915 L41.8639719,15.5433215 L38.814512,16.1461096 L38.7584165,14.0578795 L41.8535084,13.4766195 L41.790798,10.6133761 L38.7768576,10.6133761 L40.0141645,3.681313 L38.7224757,3.681313 L38.6930598,1.63613911 L40.3507271,1.63613911 L40.6526923,0.0215281462 L42.4825848,0.0215281462 Z M54.3864173,10.8071294 L54.4373613,12.8523033 L51.2511956,12.8523033 L51.3236378,17.4162703 L55.1341197,17.4162703 L55.182488,19.439916 L45.4087096,19.439916 L45.3603414,17.4162703 L49.1492951,17.4162703 L49.098381,12.8523033 L45.9122154,12.8523033 L45.9043277,10.8071294 L54.3864173,10.8071294 Z M53.7544936,0.667372532 L53.7916368,2.77713086 L53.8197797,3.55214412 L51.5007836,5.94176835 L52.1466279,5.94176835 L55.0368719,9.94600354 L52.7548884,9.94600354 L50.3886664,7.0827601 L47.5881334,9.94600354 L45.327678,9.94600354 L51.3589562,2.77713086 L45.9123353,2.77713086 L45.853664,0.667372532 L53.7544936,0.667372532 Z" id="形状结合"></path>
                        <path d="M71.6167142,9.17099028 L71.6753555,13.7995417 L74.7155349,19.9565915 L73.1439802,19.9565915 L70.8048187,16.0599971 L70.8022429,16.0384689 L70.7832906,16.0599971 L67.9772252,19.9565915 L66.4271986,19.9565915 L69.8239349,13.7995417 L69.7652936,9.17099028 L71.6167142,9.17099028 Z M64.1218922,0.688900678 L64.1487323,2.71254642 L61.9313332,2.71254642 L60.6278182,6.93206307 L63.9000964,6.93206307 L64.0456825,18.9447686 L59.6539407,18.9447686 L59.5105196,10.5487916 L59.1518876,11.6897834 L58.0970084,11.6897834 L60.0799127,2.71254642 L58.3791891,2.71254642 L58.3308209,0.688900678 L64.1218922,0.688900678 Z M67.9393098,5.42509284 L67.7529029,6.56608459 L74.5127408,6.56608459 L74.5344294,8.54667404 L67.4301412,8.54667404 L67.0910028,10.5703198 L68.6840856,10.5703198 L69.2251859,14.5530268 L68.0411379,14.5530268 L67.0685526,10.7425449 L65.8163324,18.4496213 L64.4170029,18.4496213 L65.5787206,8.54667404 L64.3300881,8.54667404 L64.2653433,6.56608459 L65.8153698,6.56608459 L65.9587203,5.42509284 L67.9393098,5.42509284 Z M62.2907974,8.95570881 L61.1282775,8.95570881 L61.2442873,16.942651 L62.385279,16.942651 L62.2907974,8.95570881 Z M74.3459881,10.5703198 L73.5308151,14.5530268 L72.325239,14.5530268 L72.7313771,10.5703198 L74.3459881,10.5703198 Z M70.2206215,0.0215281462 L70.2428514,2.90629974 L72.2019127,2.90629974 L72.1759946,0.710428824 L73.9843589,0.710428824 L74.0775976,4.90841733 L64.6482696,4.90841733 L64.576559,0.710428824 L66.3849233,0.710428824 L66.4108414,2.90629974 L68.3914308,2.90629974 L68.3261447,0.0215281462 L70.2206215,0.0215281462 Z" id="形状结合"></path>
                    </g>
                </g>
                <g id="logo备份" transform="translate(140.101660, 14.420799)" fill="#FFFFFF" fill-rule="nonzero">
                    <path d="M93.962259,4.23976484 C96.0293503,4.23976484 97.5619558,4.83940558 98.5452759,6.06854356 C99.459156,7.19649167 99.9034187,9.51356917 99.9034187,11.2263908 C99.9034187,13.0256941 99.3493214,15.3593576 98.208184,16.4348557 C97.1616873,17.413476 95.7280373,17.8944217 93.9144695,17.8944217 C92.0414715,17.8944217 90.5706679,17.3510305 89.5074916,16.2448316 C88.5186968,15.2465335 88.044994,12.8926122 88.044994,10.9813177 C88.044994,9.36820061 88.5029573,7.12812611 89.4455876,6.05038568 C90.4906466,4.85243475 92.0000915,4.25549427 93.962259,4.23976484 Z M93.9898812,6.28071111 C92.9957395,6.28071111 92.2351302,6.79539759 91.7114452,7.62745043 C91.1552175,8.51120857 90.8712113,9.7618357 90.8712113,11.1038542 C90.8712113,12.4697982 91.1051477,13.7319046 91.6670606,14.6032058 C92.1686744,15.3810072 92.9252691,15.8627483 94.0119046,15.8534994 C95.095579,15.8442757 95.8341152,15.3631597 96.3182076,14.5936034 C96.8635051,13.7267499 97.0772014,12.473169 97.0772014,11.1038542 C97.0772014,9.75359133 96.8612861,8.4731794 96.3036176,7.57974846 C95.8162767,6.79898816 95.074756,6.2992559 93.9898812,6.28071111 Z M108.59265,4.41131601 C109.490054,4.41131601 110.175222,4.47627541 110.647285,4.61120668 C111.10115,4.74093621 111.513772,4.97420331 111.881908,5.306388 C112.609439,5.99404629 112.98167,7.05844655 113.024226,8.47824697 L113.02834,17.7228705 L110.273909,17.7228705 L110.273909,8.39715788 C110.273909,7.72801199 110.1134,7.25524355 109.826079,6.96055598 C109.567629,6.69548094 109.162966,6.53489977 108.597584,6.50609522 L106.407658,6.50251619 C105.855374,6.50161358 105.406928,6.94859652 105.406025,7.50088053 C105.406024,7.50142531 105.406024,7.50197008 105.406024,7.50251485 L105.406024,17.7228705 L105.406024,17.7228705 L102.651491,17.7228705 L102.651491,5.41131601 C102.651491,4.85903127 103.099206,4.41131601 103.651491,4.41131601 L108.59265,4.41131601 L108.59265,4.41131601 Z M76.6231355,0 L76.6231355,6.24664132 L79.6663938,6.24664132 C80.8678619,6.24664132 81.8473814,6.43202725 82.6021916,6.81120757 C83.6207024,7.32572295 84.3581004,8.11299508 84.8119809,9.16798984 C85.1358612,9.97472137 85.2969221,10.8606694 85.2969221,11.8254584 C85.2969221,14.1488031 84.4874693,15.8365894 82.8463243,16.8748364 C82.3279614,17.2032097 81.7945329,17.4265982 81.245615,17.5438879 C80.7960959,17.6399386 80.1966552,17.6966745 79.4493212,17.7156736 L79.1621424,17.7210325 L73.8686024,17.722796 L73.8686024,0 L76.6231355,0 Z M79.2123939,8.33657036 L76.6231355,8.33657036 L76.6231355,15.6329415 L79.2123939,15.6329415 L79.4255328,15.6282288 C80.4031961,15.5842737 81.1433009,15.2332771 81.6553141,14.5932632 C82.1981468,13.8627759 82.4707048,12.9759215 82.4707048,11.9234877 C82.4707048,10.7308466 82.1895036,9.84363883 81.6524059,9.2493963 C81.110181,8.64948114 80.3012064,8.33657036 79.2123939,8.33657036 L79.2123939,8.33657036 Z M66.8042123,4.41131601 C67.7520528,4.41131601 68.4866049,4.47709038 69.0072529,4.61258184 C69.5019221,4.74131266 69.9128624,4.95530652 70.2379583,5.25842503 C70.5586429,5.55743035 70.7837712,5.93161812 70.9149114,6.37995879 C71.0380109,6.80080988 71.1042422,7.38406471 71.1178759,8.124983 L71.1201097,9.34409315 L68.485471,9.34409315 C68.485471,8.00116365 68.3068038,7.37709433 67.9940666,7.03851988 C67.7030142,6.72342171 67.1760755,6.53112879 66.3812165,6.50447959 L66.0541941,6.50352316 C65.5019117,6.50190791 65.0528889,6.94831183 65.0512737,7.50059422 C65.0512708,7.5015691 65.0512694,7.50254399 65.0512694,7.50351888 L65.0512694,17.7228705 L65.0512694,17.7228705 L62.2967363,17.7228705 L62.2967363,5.41131601 C62.2967363,4.85903127 62.7444515,4.41131601 63.2967363,4.41131601 L66.8042123,4.41131601 L66.8042123,4.41131601 Z M54.3606601,4.41173406 L54.8336921,4.41561667 L55.4273548,4.42909613 C56.4497199,4.51035373 56.8163383,4.58392025 57.1856782,4.69398053 C57.9821581,5.00516795 58.5775578,5.52270244 58.9696551,6.24916587 C59.3393639,6.93414875 59.5293615,7.80001702 59.5472563,8.84655721 L59.5478755,9.13645657 L59.5414829,17.7228501 L52.7561914,17.7222296 L52.2533644,17.7170555 C50.1495374,17.5467835 49.7550336,17.414267 49.4246209,17.1987285 C48.5307228,16.5771592 48.1129925,14.7545246 48.1129925,13.5055707 C48.1129925,12.7378399 48.2820236,11.167512 48.6417617,10.5630446 C48.9873989,9.982271 49.4457218,9.58418389 50.0187039,9.37322138 C50.46338,9.21225333 51.1576378,9.1230592 52.097878,9.09892626 L52.3604032,9.0939526 L56.7827919,9.09212151 C56.8187823,8.03280702 56.6094952,7.34940596 56.220841,6.99939984 C55.919618,6.72813078 55.3712321,6.55489078 54.5542956,6.51187707 L54.3444543,6.50385532 L48.949308,6.50134894 L48.949308,4.4113329 L54.3606601,4.41173406 Z M56.786779,11.1818349 L52.1728768,11.1881547 L52.0450014,11.2057494 C51.7106184,11.2743678 51.4303465,11.5151382 51.2321653,11.8934933 C51.0302581,12.2789619 50.9153151,12.8105805 50.9153151,13.4075415 C50.9153151,14.0394092 51.0145834,14.607002 51.2514338,15.0026958 C51.4777879,15.3808538 51.8229692,15.6183771 52.3274771,15.6328518 L52.3274771,15.6328518 L56.786779,15.6329462 L56.786779,11.1818349 Z M45.3649206,0.00015765977 L45.3649206,2.45753871 L40.5707078,2.45753871 C38.9744926,2.45753871 37.8166322,2.91122796 37.0815003,3.78517612 C36.4728448,4.49379496 36.1415553,5.92205714 36.1415553,8.57960119 C36.1415553,11.0905091 36.6501806,13.6550002 37.5875035,14.430826 C38.2115524,14.942864 39.1597029,15.2275468 40.4479003,15.2618463 L40.4479003,15.2618463 L45.3649206,15.2651802 L45.3649206,17.7228705 L40.0211291,17.7228705 C38.9889834,17.7228705 38.1990379,17.6680631 37.6505984,17.5555657 C35.7665572,17.1785234 34.4259489,16.1027079 33.6303632,14.3295475 C33.0979333,13.1088988 32.8374434,10.6962319 32.8374434,8.89819624 C32.8374434,6.75298475 33.2341039,4.10463107 34.046144,2.7592431 C34.6266909,1.80342091 35.4015885,1.10550385 36.3718504,0.666703617 C37.2830964,0.254593272 38.4366143,0.0356944397 39.8260953,0.00406032878 L39.8260953,0.00406032878 L45.3649206,0.00015765977 Z" id="形状结合"></path>
                    <path d="M24.0569314,6.29291166 C24.7195369,6.36338568 25.2671799,6.49398854 25.7214594,6.69071274 C26.4018748,6.9853643 26.9824753,7.48329505 27.4661564,8.18090898 C28.1884583,9.22120852 28.5477306,10.4353207 28.5477306,11.8219574 C28.5477306,12.0229105 28.5418006,12.2192717 28.5299192,12.4110395 L28.5076309,13.0158361 L25.2243541,13.0158361 L23.5294338,13.0136554 L19.1148368,13.0176829 C19.1478872,14.0205579 19.4424188,14.7049895 19.9593637,15.0977285 C20.3421983,15.3885798 20.9230319,15.567934 21.7141642,15.6183113 L21.9578251,15.6295377 L27.573167,15.6328111 L27.573167,17.7228705 L21.8368192,17.7228705 C20.9384028,17.7228705 20.206121,17.6413382 19.6406056,17.474485 C19.0847919,17.3104943 18.5634357,17.0407301 18.0790293,16.668148 C16.7124402,15.5814957 16.0390278,13.9635593 16.0390278,11.8254584 C16.0390278,10.4388218 16.3983001,9.22470956 17.120689,8.18428469 C17.6042831,7.48679609 18.1848837,6.98886535 18.865299,6.69421378 C19.2422587,6.53097264 19.683531,6.41326333 20.1886954,6.33954425 L20.4465999,6.30634343 L22.9879152,6.24313811 C23.7429841,6.24650086 23.9028216,6.26087315 24.0569314,6.29291166 Z M22.9900309,8.33695049 L21.8368687,8.33657036 L21.6053361,8.34032637 C20.7788712,8.36779252 20.1993521,8.54503725 19.8529649,8.84378492 C19.4775352,9.16758067 19.2217171,9.74955096 19.0996864,10.9280558 L21.0627293,10.9240251 L25.4595783,10.9240251 L25.4349934,10.4731967 C25.3319736,9.68327575 25.0882378,9.14598039 24.7337936,8.84028388 C24.3880612,8.542101 23.8117323,8.36426097 22.9900309,8.33695049 Z" id="形状结合"></path>
                    <polygon id="路径" points="3.34665839 0 8.18865936 14.6168751 13.1047726 0 16.4477563 2.60815413e-14 10.0854444 17.7228705 6.10499406 17.7228705 0 2.60815413e-14"></polygon>
                </g>
                <polygon id="矩形" fill="#FFFFFF" points="124.891401 16.2102409 125.786123 16.2102409 125.786123 30.5299887 124.891401 30.5299887"></polygon>
            </g>
        </g>
    </g>
</svg>